<mxfile host="app.diagrams.net" modified="2024-07-29T02:35:34.972Z" agent="Mozilla/5.0 (Windows NT 10.0; Win64; x64) AppleWebKit/537.36 (KHTML, like Gecko) Chrome/126.0.0.0 Safari/537.36" version="24.7.1" etag="pogFXr1CrveRpx7Mmfgy" type="github">
  <diagram name="第 1 页" id="aqMuJ5c2da_F4W3aN2EW">
    <mxGraphModel>
      <root>
        <mxCell id="0" />
        <mxCell id="1" parent="0" />
      </root>
    </mxGraphModel>
  </diagram>
</mxfile>
